<svg width="468" height="118" viewBox="0 0 468 118" fill="none" xmlns="http://www.w3.org/2000/svg">
<path d="M58.8663 3.88265C56.6732 -1.11645 49.5822 -1.11946 47.3849 3.87783L1.12892 109.075C-1.34278 114.696 5.6507 119.678 10.1559 115.506L35.7014 91.8491C38.7381 89.0369 43.4523 89.1198 46.3882 92.037L62.6957 108.24C64.6088 110.141 67.6116 110.391 69.8132 108.834L92.8999 92.4982C95.051 90.9761 95.8353 88.1512 94.7766 85.738L58.8663 3.88265Z" fill="#03AA30"/>
<path fill-rule="evenodd" clip-rule="evenodd" d="M165.136 4.44842C179.839 2.77613 193.404 5.78117 205.833 13.4636C216.759 21.6596 223.112 32.5639 224.893 46.1757C217.673 46.3473 210.461 46.1752 203.257 45.6606C199.402 34.4519 191.675 27.4974 180.075 24.7969C160.885 22.3216 148.092 30.1349 141.696 48.2363C138.48 62.1027 141.829 74.0367 151.742 84.0394C161.433 91.5807 172.251 93.6413 184.196 90.2212C194.871 86.5621 201.224 79.1784 203.257 68.0697C210.467 67.8121 217.679 67.7261 224.893 67.8121C221.75 92.8501 207.67 107.36 182.651 111.342C167.093 113.461 152.84 110.199 139.893 101.555C123.715 87.8948 116.933 70.4657 119.545 49.2666C124.628 24.0067 139.825 9.06702 165.136 4.44842Z" fill="#2B2B2B"/>
<path fill-rule="evenodd" clip-rule="evenodd" d="M236.227 5.47876C243.61 5.47876 250.994 5.47876 258.378 5.47876C258.378 40.5091 258.378 75.5394 258.378 110.57C250.994 110.57 243.61 110.57 236.227 110.57C236.227 75.5394 236.227 40.5091 236.227 5.47876Z" fill="#2B2B2B"/>
<path fill-rule="evenodd" clip-rule="evenodd" d="M295.985 37.9334C295.839 37.5269 295.582 37.1833 295.212 36.9031C294.955 61.4583 294.869 86.0136 294.955 110.57C287.743 110.57 280.53 110.57 273.318 110.57C273.318 75.5395 273.318 40.5092 273.318 5.47882C282.888 5.31093 292.418 5.48269 301.909 5.99397C309.847 30.2355 317.832 54.4476 325.864 78.6304C333.969 54.4857 341.868 30.2736 349.561 5.99397C359.171 5.47903 368.787 5.30733 378.409 5.47882C378.409 40.5092 378.409 75.5395 378.409 110.57C371.026 110.57 363.642 110.57 356.258 110.57C356.344 86.3572 356.258 62.145 356 37.9334C347.45 62.0013 339.293 86.2134 331.531 110.57C327.753 110.57 323.975 110.57 320.197 110.57C312.228 86.3196 304.157 62.1074 295.985 37.9334Z" fill="#2B2B2B"/>
<path fill-rule="evenodd" clip-rule="evenodd" d="M441.773 89.9638V91.5092C442.908 97.8765 444.111 104.23 445.379 110.57C452.764 110.656 460.149 110.57 467.53 110.312C459.352 75.7744 451.367 41.1737 443.576 6.50912C433.307 5.48855 422.918 5.1451 412.409 5.47881C404.833 40.5911 396.934 75.6214 388.712 110.57C395.932 110.741 403.144 110.569 410.348 110.055C411.642 103.403 413.187 96.8776 414.985 90.4789C423.824 89.9653 432.753 89.7938 441.773 89.9638ZM437.651 72.9638V71.4184C434.574 55.2627 431.397 39.1214 428.121 22.9941C424.672 39.6391 421.323 56.2956 418.075 72.9638H437.651Z" fill="#2B2B2B"/>
</svg>
