<svg width="703" height="208" viewBox="0 0 703 208" fill="none" xmlns="http://www.w3.org/2000/svg">
<path d="M209.216 77.32C209.216 119.624 209.402 163.117 209.349 204.585C209.336 207.144 210.389 207.172 211.949 207.157C218.042 207.101 224.122 206.985 230.216 207.205C232.776 207.299 233.176 206.085 233.162 203.393C232.989 167.845 232.896 132.297 232.803 96.748C232.803 94.9813 232.749 93.484 231.162 92.5413C224.136 88.336 216.949 82.0213 209.216 77.32Z" fill="#2B2B2B"/>
<path d="M36.6893 150.929C29.9693 137.032 26.7 121.377 26.7 103.787C26.7 86.02 29.9693 70.364 36.6893 56.468C43.4107 42.7467 52.492 31.8387 64.2987 23.9227C76.1067 16.008 89.5467 11.9614 104.989 11.9614C128.229 11.9614 142.723 21.0654 157.443 38.832L170.269 25.9974C160.829 17.7294 154.389 11.6107 142.589 6.86137C130.776 2.2867 118.243 5.25347e-06 104.989 5.25347e-06C86.0947 5.25347e-06 68.6587 4.5747 52.856 13.8974C36.872 23.22 24.1573 35.8853 14.5293 51.5413C4.90263 67.1973 0 84.6134 0 103.787C0 122.785 4.90263 140.199 14.5293 155.856C23.232 170.007 34.4667 181.563 48.348 190.539L62.7227 182.503C51.596 174.687 42.968 164.272 36.6893 150.929Z" fill="#2B2B2B"/>
<path d="M102.763 195.435C94.4881 195.435 86.7588 194.177 79.5708 191.7L65.4082 199.927C77.0762 204.875 89.5468 207.396 102.763 207.396C115.523 207.396 127.589 205.109 138.949 200.361C150.309 195.787 160.629 189.277 169.723 181.009L157.656 168.872C143.669 186.64 125.309 195.435 102.763 195.435Z" fill="#2B2B2B"/>
<path d="M304.855 0.829319H280.122V207.1H292.482V34.6627L343.455 143.976L386.362 176.141L304.855 0.829319Z" fill="#2B2B2B"/>
<path d="M490.576 0.828005L465.629 0.80932L386.643 175.529L380.656 189.248L356.536 172.013L372.883 207.099H385.256L465.656 31.932V160.903L490.576 139.477V0.828005Z" fill="#2B2B2B"/>
<path d="M465.656 180.361V207.099H490.576V158.649L465.656 180.361Z" fill="#2B2B2B"/>
<path d="M601.616 41.3507L601.976 41.02L617.469 54.632L628.816 44.4027L608.242 0.738669L579.869 60.9347L601.602 41.34L601.616 41.3507Z" fill="#03AA30"/>
<path d="M634.136 59.3213L623.43 69.196L616.31 75.9466L607.163 67.724L600.696 61.9213L561.803 97.824L511.35 207.396H535.776L541.216 195.597C547.976 182.077 556.403 178.072 566.71 175.975C577.63 173.755 590.496 175.268 602.296 175.268C621.976 175.268 640.336 170.969 652.096 158.837C652.896 158.016 653.643 157.16 654.35 156.276L677.883 207.396H702.31L634.136 59.3213Z" fill="#2B2B2B"/>
<path d="M233.149 73.1134C233.149 59.208 233.149 46.3667 233.163 33.5267C233.163 30.8054 231.549 31.1974 230.163 31.1921C224.176 31.1707 218.176 31.2787 212.189 31.1334C210.003 31.0814 209.136 31.812 209.216 34.6C209.363 40.2787 209.256 45.9667 209.269 51.6507C209.269 52.9947 209.136 54.328 210.349 55.276C217.736 60.9974 225.096 66.7907 233.149 73.1134Z" fill="#2B2B2B"/>
</svg>
